<svg id="Layer_1" data-name="Layer 1" xmlns="http://www.w3.org/2000/svg" viewBox="0 0 720 720"><defs><style>.cls-1{fill:#fff;}</style></defs><title>logo2Artboard 1</title><path class="cls-1" d="M195.25,252.76c21.08-17.42,48.37-20.8,67.7-9.11,14,8.47,19.65,22.34,21.62,28.16a45.78,45.78,0,0,1,1.4,5,60.88,60.88,0,0,1,1.08,11.51c.66,10,1.16,18.22-1.72,21.66-5.1,6.09-23.86.83-45.86-11.65l-38.11.2,13.74,51.91h41.22s24.43-3.06,25.19,32.82-8.4,90.08-8.4,90.08l55.21.65q1.28-11,2.38-22.13A1296,1296,0,0,0,333.77,234c-.19-5.79-1.51-19.59-11.58-27.23-5.22-4-11.58-5.67-24.51-6.13-18.45-.66-27.68-1-45.28.34l-80.81.61Z"/><g id="Layer_4" data-name="Layer 4"><path class="cls-1" d="M501.69,252.76c-21.08-17.42-48.37-20.8-67.7-9.11-14,8.47-19.65,22.34-21.62,28.16a45.78,45.78,0,0,0-1.4,5,60.88,60.88,0,0,0-1.07,11.51c-.66,10-1.16,18.22,1.72,21.66,5.1,6.09,23.85.83,45.86-11.65l38.11.2-13.74,51.91H440.62s-24.42-3.06-25.19,32.82,8.4,90.08,8.4,90.08l-55.2.65q-1.29-11-2.39-22.13A1297.1,1297.1,0,0,1,363.18,234c.19-5.79,1.51-19.59,11.57-27.23,5.23-4,11.58-5.67,24.51-6.13,18.46-.66,27.68-1,45.28.34l80.82.61Z"/></g></svg>